<svg xmlns="http://www.w3.org/2000/svg" viewBox="0 0 512 512" width="512" height="512">
  <defs>
    <linearGradient id="fontgen-grad" x1="0%" y1="0%" x2="100%" y2="100%">
      <stop offset="0%" stop-color="#4f46e5" />
      <stop offset="50%" stop-color="#6366f1" />
      <stop offset="100%" stop-color="#7c3aed" />
    </linearGradient>
    <linearGradient id="border-glow" x1="0%" y1="0%" x2="100%" y2="100%">
      <stop offset="0%" stop-color="#ffffff" stop-opacity="0.4" />
      <stop offset="100%" stop-color="#818cf8" stop-opacity="0.1" />
    </linearGradient>
    <linearGradient id="sparkle-grad" x1="0%" y1="0%" x2="100%" y2="100%">
      <stop offset="0%" stop-color="#fde047" />
      <stop offset="100%" stop-color="#fbbf24" />
    </linearGradient>
  </defs>

  <!-- Background rounded squircle -->
  <rect x="20" y="20" width="472" height="472" rx="130" fill="url(#fontgen-grad)" />
  <rect x="28" y="28" width="456" height="456" rx="122" fill="none" stroke="url(#border-glow)" stroke-width="16" />

  <!-- Modern Geometric 'F' Glyph -->
  <rect x="132" y="122" width="72" height="268" rx="36" fill="#ffffff" />
  <path d="M 168 122 L 350 122 C 370 122 386 138 386 158 C 386 178 370 194 350 194 L 168 194 Z" fill="#ffffff" />
  <path d="M 168 226 L 310 226 C 330 226 346 242 346 262 C 346 282 330 298 310 298 L 168 298 Z" fill="#ffffff" />

  <!-- Golden 4-point Transformation Sparkle -->
  <path d="M 395 92 Q 395 134 437 134 Q 395 134 395 176 Q 395 134 353 134 Q 395 134 395 92 Z" fill="url(#sparkle-grad)" />
  <circle cx="395" cy="262" r="18" fill="#a5b4fc" />
</svg>
